<svg width="40" height="40" viewBox="0 0 40 40" fill="none" xmlns="http://www.w3.org/2000/svg">
<g clip-path="url(#clip0)">
<path d="M6.25293 38.4637V2.16461C6.25293 0.971061 7.22399 3.8147e-06 8.41754 3.8147e-06H10.5544C10.878 3.8147e-06 11.1403 0.262338 11.1403 0.585919C11.1403 0.909501 10.878 1.17184 10.5544 1.17184H8.41754C7.87014 1.17184 7.42476 1.61721 7.42476 2.16461V38.4638C7.42468 38.7511 7.74412 38.9255 7.98583 38.7648L19.4114 31.1824C19.7681 30.9455 20.232 30.9455 20.5889 31.1824L26.6655 35.2151C26.9351 35.3941 27.0086 35.7577 26.8297 36.0273C26.6507 36.2969 26.287 36.3704 26.0175 36.1915L20.0001 32.1981L8.63378 39.7412C7.60819 40.4219 6.25285 39.6782 6.25293 38.4637ZM32.2115 39.9985C31.9122 39.9985 31.62 39.9095 31.3665 39.7413L28.2959 37.7035C28.0263 37.5245 27.9527 37.161 28.1316 36.8914C28.3105 36.6217 28.6743 36.5483 28.9438 36.7272C32.2947 38.9509 32.0658 38.8267 32.2115 38.8267C32.3866 38.8267 32.5755 38.6879 32.5755 38.4638V2.16461C32.5755 1.61721 32.1301 1.17184 31.5827 1.17184H13.2887C12.9651 1.17184 12.7028 0.909501 12.7028 0.585919C12.7028 0.262338 12.9651 3.8147e-06 13.2887 3.8147e-06H31.5826C32.7762 3.8147e-06 33.7472 0.971061 33.7472 2.16461V38.4638C33.7473 39.31 33.0583 39.9985 32.2115 39.9985Z" fill="black"/>
<path d="M24.607 24.9815C24.3633 24.9815 24.1184 24.9227 23.8921 24.8038L20.1684 22.8461C20.0632 22.7907 19.9375 22.7907 19.8322 22.8461L16.1086 24.8038C15.5882 25.0773 14.9695 25.0326 14.4939 24.6871C14.0184 24.3415 13.7847 23.7669 13.884 23.1876L14.5953 19.0412C14.6153 18.924 14.5765 18.8044 14.4914 18.7213L11.4788 15.7849C11.0578 15.3746 10.9091 14.7723 11.0909 14.2132C11.2726 13.6541 11.7468 13.2543 12.3285 13.1698L16.4917 12.5648C16.6095 12.5477 16.7112 12.4738 16.7638 12.3671L18.6257 8.5946C18.8859 8.06743 19.4127 7.74002 20.0005 7.74002C20.5884 7.74002 21.1152 8.06751 21.3754 8.5946L23.2372 12.3671C23.2899 12.4738 23.3916 12.5477 23.5092 12.5648L27.6725 13.1697C28.2542 13.2543 28.7285 13.654 28.9101 14.2131C29.0917 14.7722 28.9431 15.3744 28.5222 15.7848L25.5096 18.7213C25.4245 18.8043 25.3856 18.9238 25.4057 19.0412L26.1169 23.1875C26.2163 23.7669 25.9826 24.3414 25.507 24.687C25.2381 24.8823 24.9236 24.9815 24.607 24.9815ZM20.0004 21.6327C20.2454 21.6327 20.4904 21.6914 20.7138 21.8088L24.4375 23.7665C24.6168 23.8608 24.7634 23.7787 24.8181 23.739C24.8727 23.6993 24.996 23.5854 24.9618 23.3856L24.2506 19.2393C24.1653 18.7417 24.3302 18.2345 24.6916 17.8822L27.7041 14.9458C27.8493 14.8042 27.8164 14.6396 27.7955 14.5754C27.7747 14.5112 27.7045 14.3587 27.5039 14.3295L23.3406 13.7246C22.8413 13.652 22.4097 13.3386 22.1863 12.8859L20.3244 9.11333C20.2347 8.93154 20.0679 8.91193 20.0004 8.91193C19.9329 8.91193 19.7662 8.93154 19.6765 9.11333L17.8147 12.8858C17.5912 13.3385 17.1597 13.652 16.6603 13.7245L12.4971 14.3295C12.2964 14.3586 12.2263 14.5111 12.2054 14.5753C12.1846 14.6395 12.1517 14.8042 12.2968 14.9457L15.3094 17.8821C15.6708 18.2344 15.8356 18.7416 15.7504 19.2391L15.0391 23.3856C15.0049 23.5854 15.1283 23.6993 15.1829 23.739C15.2376 23.7787 15.3841 23.8609 15.5634 23.7665L19.2871 21.8088C19.5103 21.6915 19.7553 21.6327 20.0004 21.6327Z" fill="black"/>
</g>
<defs>
<clipPath id="clip0">
<rect width="40" height="40" fill="white"/>
</clipPath>
</defs>
</svg>
