<svg width="48" height="40" viewBox="0 0 48 40" fill="none" xmlns="http://www.w3.org/2000/svg">
<g clip-path="url(#clip0)">
<path d="M12.5169 27.6272H12.5187C12.5201 27.6272 12.5216 27.627 12.5231 27.627H33.1586C33.6666 27.627 34.1133 27.3233 34.2529 26.8833L38.8056 12.5278C38.9037 12.2183 38.8349 11.8856 38.62 11.6287C38.4048 11.3718 38.0684 11.2207 37.7113 11.2207H9.89198L9.07837 7.9221C8.96247 7.45293 8.50069 7.11914 7.96717 7.11914H1.13817C0.509508 7.11914 0 7.57816 0 8.14453C0 8.7109 0.509508 9.16992 1.13817 9.16992H7.05427C7.19832 9.75445 10.9477 24.9553 11.1635 25.8298C9.95392 26.3036 9.10534 27.3901 9.10534 28.6523C9.10534 30.3485 10.6371 31.7285 12.5198 31.7285H33.1586C33.7873 31.7285 34.2968 31.2695 34.2968 30.7031C34.2968 30.1368 33.7873 29.6777 33.1586 29.6777H12.5198C11.8924 29.6777 11.3817 29.2176 11.3817 28.6523C11.3817 28.0878 11.8906 27.6286 12.5169 27.6272ZM36.2023 13.2715L32.2999 25.5762H13.4327L10.3976 13.2715H36.2023Z" fill="white"/>
<path d="M11.3817 34.8047C11.3817 36.5009 12.9134 37.8809 14.7962 37.8809C16.6789 37.8809 18.2107 36.5009 18.2107 34.8047C18.2107 33.1085 16.6789 31.7285 14.7962 31.7285C12.9134 31.7285 11.3817 33.1085 11.3817 34.8047ZM14.7962 33.7793C15.4236 33.7793 15.9343 34.2394 15.9343 34.8047C15.9343 35.37 15.4236 35.8301 14.7962 35.8301C14.1687 35.8301 13.658 35.37 13.658 34.8047C13.658 34.2394 14.1687 33.7793 14.7962 33.7793Z" fill="white"/>
<path d="M27.4678 34.8047C27.4678 36.5009 28.9996 37.8809 30.8823 37.8809C32.765 37.8809 34.2968 36.5009 34.2968 34.8047C34.2968 33.1085 32.765 31.7285 30.8823 31.7285C28.9996 31.7285 27.4678 33.1085 27.4678 34.8047ZM30.8823 33.7793C31.5097 33.7793 32.0204 34.2394 32.0204 34.8047C32.0204 35.37 31.5097 35.8301 30.8823 35.8301C30.2548 35.8301 29.7441 35.37 29.7441 34.8047C29.7441 34.2394 30.2548 33.7793 30.8823 33.7793Z" fill="white"/>
</g>
<ellipse cx="39.3745" cy="7.5" rx="7.87489" ry="7.5" fill="#F06449"/>
<path d="M39.3736 11.088C38.7649 11.088 38.2223 10.934 37.7456 10.626C37.2763 10.3107 36.9059 9.856 36.6346 9.262C36.3633 8.668 36.2276 7.964 36.2276 7.15C36.2276 6.336 36.3633 5.632 36.6346 5.038C36.9059 4.444 37.2763 3.993 37.7456 3.685C38.2223 3.36967 38.7649 3.212 39.3736 3.212C39.9749 3.212 40.5103 3.36967 40.9796 3.685C41.4563 3.993 41.8303 4.444 42.1016 5.038C42.3729 5.632 42.5086 6.336 42.5086 7.15C42.5086 7.964 42.3729 8.668 42.1016 9.262C41.8303 9.856 41.4563 10.3107 40.9796 10.626C40.5103 10.934 39.9749 11.088 39.3736 11.088ZM39.3736 10.109C39.9896 10.109 40.4809 9.856 40.8476 9.35C41.2216 8.844 41.4086 8.11067 41.4086 7.15C41.4086 6.18933 41.2216 5.456 40.8476 4.95C40.4809 4.444 39.9896 4.191 39.3736 4.191C38.7503 4.191 38.2516 4.444 37.8776 4.95C37.5109 5.456 37.3276 6.18933 37.3276 7.15C37.3276 8.11067 37.5109 8.844 37.8776 9.35C38.2516 9.856 38.7503 10.109 39.3736 10.109Z" fill="white"/>
<defs>
<clipPath id="clip0">
<rect width="38.8494" height="35" fill="white" transform="translate(0 5)"/>
</clipPath>
</defs>
</svg>
