<svg width="67" height="50" viewBox="0 0 67 50" fill="none" xmlns="http://www.w3.org/2000/svg">
<path d="M57.7917 49.2688H8.22021C4.84699 49.2688 2.67302 45.6947 4.22429 42.6993L23.3135 5.83983C23.7852 4.92906 24.5539 4.20674 25.4922 3.79254L31.0283 1.34874C32.1859 0.837734 33.5052 0.837734 34.6628 1.34874L40.2157 3.79998C41.1448 4.21009 41.9078 4.9224 42.3807 5.82109L61.7739 42.6731C63.3509 45.6697 61.1779 49.2688 57.7917 49.2688Z" fill="url(#paint0_diamond)" stroke="black"/>
<g clip-path="url(#clip0)">
<path d="M35.3805 15.1981L37.4438 6.62249C38.3916 6.08891 39.0241 5.37846 38.4113 5.29612C37.6901 5.19922 37.2082 5.02964 36.8501 4.83677C36.7583 4.40331 36.2326 4.01903 35.4458 3.75297C35.0718 2.90663 34.2176 2.28509 33.1911 2.16968V1.58016C33.1911 1.37793 33.0363 1.21387 32.8453 1.21387C32.6544 1.21387 32.4997 1.37783 32.4997 1.58016V2.16968C31.4732 2.28499 30.619 2.90653 30.245 3.75286C29.4583 4.01893 28.9325 4.4031 28.8408 4.83667C28.4827 5.02953 28.0008 5.19922 27.2795 5.29612C26.6667 5.37846 27.2992 6.0889 28.2471 6.62259L30.3105 15.1981H31.5444C32.3935 16.3371 29.9735 17.0914 31.4483 18.3692C31.5158 18.3692 31.5834 18.3692 31.6509 18.3692V20.0365H31.2504C31.095 20.0365 30.9694 20.17 30.9694 20.3342C30.9694 20.4986 31.0949 20.6319 31.2504 20.6319H31.6509V20.9102H31.2504C31.095 20.9102 30.9694 21.0436 30.9694 21.2079C30.9694 21.3721 31.0949 21.5056 31.2504 21.5056H31.6509V32.2682H31.2504C31.095 32.2682 30.9694 32.4013 30.9694 32.5655C30.9694 32.7301 31.0949 32.8631 31.2504 32.8631H31.6509V33.1418H31.2504C31.095 33.1418 30.9694 33.275 30.9694 33.4391C30.9694 33.6037 31.0949 33.7368 31.2504 33.7368H31.6509V38.4362L31.1593 38.4358C30.7599 41.1068 30.3606 43.7777 29.9613 46.4487H29.4026V49.7688H36.2884V46.4487H35.7298C35.3305 43.7777 34.9313 41.1068 34.5319 38.4358L34.0402 38.4384V33.7368H34.4409C34.596 33.7368 34.7217 33.6037 34.7217 33.4391C34.7217 33.275 34.596 33.1418 34.4409 33.1418H34.0402V32.8631H34.4409C34.596 32.8631 34.7217 32.7301 34.7217 32.5655C34.7217 32.4012 34.596 32.2682 34.4409 32.2682H34.0402V21.5056H34.4409C34.596 21.5056 34.7217 21.3721 34.7217 21.2079C34.7217 21.0435 34.596 20.9102 34.4409 20.9102H34.0402V20.6319H34.4409C34.596 20.6319 34.7217 20.4986 34.7217 20.3342C34.7217 20.1699 34.596 20.0365 34.4409 20.0365H34.0402V18.3692C34.1077 18.3692 34.1752 18.3692 34.2427 18.3692C35.7174 17.0915 33.2978 16.3371 34.1468 15.1981H35.3805ZM31.7905 7.0834C32.1163 7.20432 32.4722 7.27159 32.8455 7.27159C33.2188 7.27159 33.5748 7.20442 33.9005 7.0834V14.0024H31.7905V7.0834ZM34.7838 13.8897V7.1542C35.0214 7.19641 35.2708 7.21929 35.5284 7.21929C35.8128 7.21929 36.1193 7.16148 36.4254 7.06687L34.7838 13.8897ZM29.2658 7.06697C29.5718 7.16148 29.8784 7.21929 30.1628 7.21929C30.4203 7.21929 30.6698 7.19641 30.9074 7.1542V13.8893L29.2658 7.06697Z" fill="black"/>
</g>
<defs>
<radialGradient id="paint0_diamond" cx="0" cy="0" r="1" gradientUnits="userSpaceOnUse" gradientTransform="translate(32.8455 9.71098) rotate(89.7269) scale(40.0583 53.1814)">
<stop stop-color="#F9F7DC"/>
<stop offset="0.813541" stop-color="#FFF500"/>
<stop offset="1" stop-color="#F4EA09"/>
</radialGradient>
<clipPath id="clip0">
<rect width="45.831" height="48.5549" fill="white" transform="translate(9.93005 1.21387)"/>
</clipPath>
</defs>
</svg>
