<svg width="100" height="100" viewBox="0 0 100 100" fill="none" xmlns="http://www.w3.org/2000/svg">
<g clip-path="url(#clip0)">
<path d="M72.7208 100C72.0208 100 71.3042 99.9125 70.5958 99.725L6.16665 82.4708C1.74998 81.2542 -0.883351 76.6792 0.274982 72.2625L8.40415 41.9625C8.70415 40.85 9.84582 40.2042 10.9541 40.4875C12.0666 40.7833 12.725 41.9292 12.4291 43.0375L4.30415 73.3292C3.72498 75.5375 5.04998 77.8375 7.26248 78.45L71.6667 95.6958C73.8792 96.2792 76.1625 94.9625 76.7375 92.7625L79.9917 80.7042C80.2917 79.5917 81.4333 78.9292 82.5458 79.2333C83.6583 79.5333 84.3125 80.6792 84.0167 81.7875L80.7667 93.8292C79.7875 97.5375 76.4125 100 72.7208 100Z" fill="black" fill-opacity="0.5"/>
<path d="M91.6668 75H25.0001C20.4042 75 16.6667 71.2625 16.6667 66.6667V16.6667C16.6667 12.0708 20.4042 8.33333 25.0001 8.33333H91.6668C96.2626 8.33333 100 12.0708 100 16.6667V66.6667C100 71.2625 96.2626 75 91.6668 75ZM25.0001 12.5C22.7042 12.5 20.8334 14.3708 20.8334 16.6667V66.6667C20.8334 68.9625 22.7042 70.8333 25.0001 70.8333H91.6668C93.9626 70.8333 95.8334 68.9625 95.8334 66.6667V16.6667C95.8334 14.3708 93.9626 12.5 91.6668 12.5H25.0001Z" fill="black" fill-opacity="0.5"/>
<path d="M37.5001 37.5C32.9042 37.5 29.1667 33.7625 29.1667 29.1667C29.1667 24.5708 32.9042 20.8333 37.5001 20.8333C42.0959 20.8333 45.8334 24.5708 45.8334 29.1667C45.8334 33.7625 42.0959 37.5 37.5001 37.5ZM37.5001 25C35.2042 25 33.3334 26.8708 33.3334 29.1667C33.3334 31.4625 35.2042 33.3333 37.5001 33.3333C39.7959 33.3333 41.6667 31.4625 41.6667 29.1667C41.6667 26.8708 39.7959 25 37.5001 25Z" fill="black" fill-opacity="0.5"/>
<path d="M19.0417 70.5417C18.5083 70.5417 17.975 70.3375 17.5667 69.9333C16.7542 69.1208 16.7542 67.8 17.5667 66.9875L37.2458 47.3083C39.6041 44.95 43.725 44.95 46.0833 47.3083L51.9416 53.1667L68.1583 33.7083C69.3375 32.2958 71.0708 31.475 72.9166 31.4583H72.9625C74.7875 31.4583 76.5166 32.25 77.7083 33.6375L99.5 59.0625C100.25 59.9333 100.15 61.25 99.275 62C98.4041 62.75 97.0916 62.6542 96.3375 61.775L74.5458 36.35C74.1416 35.8833 73.5833 35.625 72.9625 35.625C72.5291 35.5875 71.7666 35.8875 71.3625 36.375L53.6833 57.5875C53.3083 58.0375 52.7625 58.3083 52.175 58.3333C51.5833 58.375 51.0208 58.1417 50.6083 57.725L43.1375 50.2542C42.35 49.4708 40.9791 49.4708 40.1916 50.2542L20.5125 69.9333C20.1083 70.3375 19.575 70.5417 19.0417 70.5417Z" fill="black" fill-opacity="0.5"/>
</g>
<defs>
<clipPath id="clip0">
<rect width="100" height="100" fill="white"/>
</clipPath>
</defs>
</svg>
