<svg width="22" height="22" viewBox="0 0 22 22" fill="none" xmlns="http://www.w3.org/2000/svg">
<g clip-path="url(#clip0)">
<path d="M11.2165 22C11.1437 22 11.0708 22 10.9975 21.9996C9.27303 22.0038 7.67966 21.96 6.1301 21.8657C4.70944 21.7792 3.41266 21.2883 2.37973 20.446C1.38306 19.6333 0.702438 18.5344 0.356842 17.1802C0.0560608 16.0013 0.0401154 14.844 0.0248413 13.7246C0.0137634 12.9215 0.00234985 11.9698 0 11.002C0.00234985 10.0301 0.0137634 9.07844 0.0248413 8.27529C0.0401154 7.15609 0.0560608 5.99879 0.356842 4.81966C0.702438 3.46547 1.38306 2.36658 2.37973 1.55386C3.41266 0.711609 4.70944 0.220657 6.13026 0.134216C7.67982 0.0400537 9.27353 -0.0039222 11.0017 0.000273974C12.7266 -0.00341866 14.3195 0.0400537 15.8691 0.134216C17.2897 0.220657 18.5865 0.711609 19.6194 1.55386C20.6163 2.36658 21.2967 3.46547 21.6423 4.81966C21.9431 5.99862 21.959 7.15609 21.9743 8.27529C21.9854 9.07844 21.997 10.0301 21.9992 10.9979C21.997 11.9698 21.9854 12.9215 21.9743 13.7246C21.9679 14.1993 21.5759 14.5786 21.1034 14.5722C20.6287 14.5657 20.2494 14.1756 20.2557 13.7011C20.2666 12.9027 20.2782 11.9572 20.2804 10.9979C20.2782 10.0427 20.2666 9.09724 20.2557 8.29879C20.2418 7.27979 20.2274 6.22605 19.9769 5.24465C19.7243 4.25469 19.2386 3.46111 18.5333 2.8859C17.7704 2.26369 16.8389 1.91507 15.7647 1.84978C14.2515 1.7578 12.6939 1.71533 11.0017 1.71886C9.30542 1.71483 7.74763 1.7578 6.2345 1.84978C5.16028 1.91507 4.2289 2.26369 3.46587 2.88573C2.76057 3.46094 2.27483 4.25452 2.02222 5.24465C1.77179 6.22605 1.75735 7.27979 1.74342 8.29879C1.73251 9.09724 1.7211 10.0427 1.71875 11.002C1.7211 11.9572 1.73251 12.9027 1.74342 13.7011C1.75735 14.7201 1.77179 15.7739 2.02222 16.7553C2.27483 17.7452 2.76057 18.5388 3.46587 19.114C4.2289 19.7362 5.16028 20.0848 6.2345 20.1501C7.74763 20.2421 9.30576 20.2851 10.9977 20.2809C12.6941 20.2849 14.2515 20.2421 15.7647 20.1501C16.8389 20.0848 17.7703 19.7362 18.5333 19.114C19.0414 18.6996 19.4383 18.1679 19.7131 17.5334C19.9017 17.098 20.4076 16.8978 20.8432 17.0864C21.2788 17.2751 21.4788 17.781 21.2903 18.2165C20.9051 19.106 20.343 19.8561 19.6194 20.446C18.5865 21.2885 17.2897 21.7792 15.8691 21.8657C14.3851 21.956 12.8607 22 11.2165 22ZM16.3276 11C16.3276 8.03829 13.9182 5.62885 10.9565 5.62885C7.99504 5.62885 5.58543 8.03829 5.58543 11C5.58543 13.9616 7.99504 16.3711 10.9565 16.3711C13.9182 16.3711 16.3276 13.9616 16.3276 11ZM14.6089 11C14.6089 13.0138 12.9705 14.6523 10.9565 14.6523C8.9427 14.6523 7.30418 13.0138 7.30418 11C7.30418 8.98613 8.9427 7.3476 10.9565 7.3476C12.9705 7.3476 14.6089 8.98613 14.6089 11ZM16.9292 3.9101C16.2173 3.9101 15.6401 4.48716 15.6401 5.19916C15.6401 5.91117 16.2173 6.48823 16.9292 6.48823C17.6412 6.48823 18.2182 5.91117 18.2182 5.19916C18.2182 4.48716 17.6412 3.9101 16.9292 3.9101Z" fill="white"/>
</g>
<defs>
<clipPath id="clip0">
<rect width="22" height="22" fill="white"/>
</clipPath>
</defs>
</svg>
