<svg width="48" height="40" viewBox="0 0 48 40" fill="none" xmlns="http://www.w3.org/2000/svg">
<path d="M43.0235 29.9566L38.4221 6.08168C38.4221 3.82278 31.9801 2.01566 24.0384 2.01566C16.0967 2.01566 9.65466 3.82278 9.65466 6.08168L5.05324 29.9566C4.95098 30.2693 4.88281 30.6169 4.88281 30.9296C4.88281 33.1885 7.47324 34.9957 10.6431 34.9957C11.7679 34.9957 12.7904 34.7524 13.6766 34.3701C15.2445 36.629 19.3006 38.2624 24.0725 38.2624C28.5035 38.2624 32.2528 36.8723 34.0592 34.8567C34.0592 34.8567 34.0933 34.8219 34.1274 34.8219L34.1615 34.7872C34.1956 34.7524 34.1956 34.7524 34.2297 34.7177C34.2638 34.6829 34.2978 34.6481 34.366 34.6134L34.4001 34.5786C34.4342 34.5439 34.4342 34.5439 34.4683 34.5091C34.4683 34.4744 34.5023 34.4744 34.5364 34.4396C34.5705 34.4396 34.5705 34.4396 34.6046 34.4396C34.6046 34.4396 34.6387 34.4744 34.6728 34.4744H34.7069C34.7069 34.4744 34.7069 34.4744 34.7409 34.4744C34.775 34.4744 34.775 34.4744 34.8091 34.5091C34.8091 34.5091 34.8091 34.5091 34.8432 34.5091C34.8773 34.5091 34.8773 34.5091 34.9114 34.5091C35.6953 34.7872 36.5815 34.9957 37.5359 34.9957C40.7057 34.9957 43.2962 33.1885 43.2962 30.9296C43.1939 30.6169 43.1258 30.3041 43.0235 29.9566ZM24.0384 8.5491C16.0626 8.5491 11.9042 6.74198 11.5634 6.15119C11.8702 5.45614 16.0626 3.64902 24.0384 3.64902C32.0142 3.64902 36.1725 5.45614 36.5133 6.04693C36.1725 6.74198 32.0142 8.5491 24.0384 8.5491Z" fill="white"/>
</svg>
