<svg width="44" height="44" viewBox="0 0 44 44" fill="none" xmlns="http://www.w3.org/2000/svg">
<g clip-path="url(#clip0)">
<path d="M33.7083 5.22087C33.4758 4.95532 33.0764 4.93212 32.8157 5.16905C32.5551 5.40598 32.5325 5.81349 32.7648 6.07904C37.4139 11.392 37.4822 19.3096 33.1307 24.6993C31.4464 26.7853 30.2985 29.3022 29.8108 31.9778C29.7021 32.574 29.1887 32.9881 28.6128 32.9881H24.5125L24.9718 24.783H27.5187C29.116 24.783 30.4155 23.458 30.4155 21.8293C30.4155 20.2006 29.116 18.8756 27.5186 18.8756C25.5658 18.8756 23.949 20.4328 23.8377 22.4206L23.7776 23.4939H20.7876L20.7275 22.4205C20.6162 20.4328 18.9994 18.8756 17.0467 18.8756C15.4493 18.8756 14.1497 20.2006 14.1497 21.8293C14.1496 23.4616 15.4452 24.783 17.0465 24.783H19.5934L20.0528 32.9881H15.9526C15.3752 32.9881 14.8629 32.5723 14.7546 31.9776C14.2672 29.3016 13.1199 26.7855 11.4364 24.7015C6.96139 19.1615 7.13553 10.9265 12.2671 5.59057C14.8322 2.92342 18.2469 1.39785 21.8822 1.29481C25.0741 1.20338 28.1098 2.17928 30.6591 4.11417C30.9393 4.32669 31.3352 4.26765 31.5437 3.98199C31.7522 3.69642 31.6941 3.29269 31.4141 3.08008C28.6347 0.970658 25.3262 -0.0925603 21.8471 0.00635373C17.8827 0.118674 14.1599 1.78131 11.3644 4.68814C5.77346 10.5016 5.58078 19.4801 10.4605 25.5211C12.0082 27.437 13.0632 29.751 13.5115 32.213C13.6487 32.9656 14.1061 33.5882 14.7245 33.9466V38.773C14.7245 39.964 15.5373 40.9645 16.6269 41.2298V41.2556C16.6269 42.7689 17.8345 44.0002 19.3188 44.0002H25.2465C26.7307 44.0002 27.9383 42.7689 27.9383 41.2556V41.2298C29.0279 40.9646 29.8407 39.9641 29.8407 38.773V33.9468C30.4592 33.5885 30.9167 32.966 31.0538 32.2134C31.5024 29.7517 32.5582 27.4367 34.1069 25.5185C38.8522 19.6411 38.7742 11.0103 33.7083 5.22087ZM25.1 22.494C25.1731 21.1878 26.2355 20.1647 27.5187 20.1647C28.4189 20.1647 29.1513 20.9114 29.1513 21.8293C29.1513 22.7472 28.4189 23.4939 27.5187 23.4939H25.044L25.1 22.494ZM17.0465 23.4939C16.1442 23.4939 15.4139 22.7495 15.4139 21.8293C15.4139 20.9114 16.1464 20.1646 17.0467 20.1646C18.3297 20.1646 19.3922 21.1878 19.4653 22.4939L19.5213 23.4938H17.0465V23.4939ZM23.7055 24.783L23.2461 32.9881H21.3191L20.8598 24.783H23.7055ZM25.2465 42.7109H19.3188C18.546 42.7109 17.9163 42.0814 17.8934 41.2991H26.6719C26.649 42.0814 26.0192 42.7109 25.2465 42.7109ZM28.5765 36.4432H20.5197C20.1706 36.4432 19.8875 36.7318 19.8875 37.0878C19.8875 37.4437 20.1706 37.7323 20.5197 37.7323H28.5765V38.7729C28.5765 39.4551 28.0322 40.0101 27.3632 40.0101H17.2022C16.5331 40.0101 15.9888 39.4551 15.9888 38.7729V37.7323H17.5647C17.9138 37.7323 18.1968 37.4437 18.1968 37.0878C18.1968 36.7318 17.9138 36.4432 17.5647 36.4432H15.9888V34.2773H28.5765V36.4432Z" fill="white"/>
</g>
<defs>
<clipPath id="clip0">
<rect width="43.1545" height="44" fill="white" transform="translate(0.704834)"/>
</clipPath>
</defs>
</svg>
