<svg width="40" height="40" viewBox="0 0 40 40" fill="none" xmlns="http://www.w3.org/2000/svg">
<g clip-path="url(#clip0)">
<path d="M19.9988 0.00213623C8.95399 0.00213623 0 8.95612 0 20.0009C0 31.0457 8.95399 39.9997 19.9988 39.9997C31.0436 39.9997 39.9976 31.0457 39.9976 20.0009C39.9976 8.95612 31.0436 0.00213623 19.9988 0.00213623ZM19.9988 36.6665C10.7948 36.6665 3.33316 29.2049 3.33316 20.0009C3.33316 10.7969 10.7948 3.33529 19.9988 3.33529C29.2028 3.33529 36.6644 10.7969 36.6644 20.0009C36.6644 29.2049 29.2028 36.6665 19.9988 36.6665Z" fill="white"/>
<path d="M28.3318 11.6681H11.6661C10.7456 11.6681 9.99951 12.4142 9.99951 13.3346C9.99951 14.255 10.7456 15.0011 11.6661 15.0011H28.3317C29.2521 15.0011 29.9982 14.255 29.9982 13.3346C29.9983 12.4143 29.2522 11.6681 28.3318 11.6681Z" fill="white"/>
<path d="M28.3318 18.3344H11.6661C10.7456 18.3344 9.99951 19.0805 9.99951 20.0009C9.99951 20.9213 10.7456 21.6674 11.6661 21.6674H28.3317C29.2521 21.6674 29.9982 20.9213 29.9982 20.0009C29.9982 19.0805 29.2522 18.3344 28.3318 18.3344Z" fill="white"/>
<path d="M28.3318 25.0006H11.6661C10.7456 25.0006 9.99951 25.7467 9.99951 26.6671C9.99951 27.5876 10.7456 28.3337 11.6661 28.3337H28.3317C29.2521 28.3337 29.9982 27.5876 29.9982 26.6671C29.9983 25.7467 29.2522 25.0006 28.3318 25.0006Z" fill="white"/>
</g>
<defs>
<clipPath id="clip0">
<rect width="39.9976" height="39.9976" fill="white" transform="translate(0 0.00213623)"/>
</clipPath>
</defs>
</svg>
