<svg width="17" height="15" viewBox="0 0 17 15" fill="none" xmlns="http://www.w3.org/2000/svg">
<g clip-path="url(#clip0)">
<path d="M15.4258 9.84578C14.399 9.84578 13.3908 9.70215 12.4354 9.41977C11.9672 9.27695 11.3917 9.40797 11.106 9.67043L9.22016 10.9436C7.03317 9.89953 5.68603 8.69508 4.53456 6.75379L5.91625 5.11113C6.27522 4.79051 6.40398 4.32215 6.24972 3.8827C5.93263 3.02371 5.77155 2.12242 5.77155 1.20367C5.7716 0.539961 5.16786 0 4.42581 0H1.34579C0.603732 0 0 0.539961 0 1.20363C0 8.81105 6.91992 15 15.4258 15C16.1679 15 16.7716 14.46 16.7716 13.7964V11.0494C16.7715 10.3857 16.1678 9.84578 15.4258 9.84578Z" fill="white"/>
</g>
<defs>
<clipPath id="clip0">
<rect width="16.7715" height="15" fill="white"/>
</clipPath>
</defs>
</svg>
