<svg width="25" height="18" viewBox="0 0 25 18" fill="none" xmlns="http://www.w3.org/2000/svg">
<path d="M16.1211 8.50605L6.29232 0.20355C5.97029 -0.0683121 5.44892 -0.0678551 5.12743 0.204956C4.80619 0.477733 4.80702 0.91961 5.12909 1.19168L14.3728 9.00003L5.12876 16.8083C4.80673 17.0804 4.8059 17.522 5.1271 17.7949C5.28826 17.9316 5.49939 18 5.71052 18C5.92111 18 6.13141 17.9321 6.29227 17.7963L16.1211 9.49397C16.2762 9.36326 16.3632 9.18537 16.3632 9.00003C16.3632 8.81469 16.2759 8.63701 16.1211 8.50605Z" fill="black"/>
<g clip-path="url(#clip0)">
<path d="M21.0778 8.6223L13.5617 2.27333C13.3154 2.06544 12.9167 2.06579 12.6709 2.27441C12.4252 2.483 12.4259 2.82091 12.6722 3.02896L19.7409 9.00005L12.6719 14.9711C12.4256 15.1792 12.425 15.5169 12.6706 15.7255C12.7939 15.8301 12.9553 15.8824 13.1168 15.8824C13.2778 15.8824 13.4386 15.8304 13.5617 15.7266L21.0778 9.37777C21.1964 9.27782 21.2629 9.14178 21.2629 9.00005C21.2629 8.85832 21.1962 8.72245 21.0778 8.6223Z" fill="black"/>
</g>
<defs>
<clipPath id="clip0">
<rect width="16.25" height="13.7647" fill="white" transform="translate(8.75 2.11768)"/>
</clipPath>
</defs>
</svg>
