<svg width="25" height="18" viewBox="0 0 25 18" fill="none" xmlns="http://www.w3.org/2000/svg">
<path d="M8.87893 8.50605L18.7077 0.20355C19.0297 -0.0683121 19.5511 -0.0678551 19.8726 0.204956C20.1938 0.477733 20.193 0.91961 19.8709 1.19168L10.6272 9.00003L19.8712 16.8083C20.1933 17.0804 20.1941 17.522 19.8729 17.7949C19.7117 17.9316 19.5006 18 19.2895 18C19.0789 18 18.8686 17.9321 18.7077 17.7963L8.87893 9.49397C8.72384 9.36326 8.6368 9.18537 8.6368 9.00003C8.6368 8.81469 8.72408 8.63701 8.87893 8.50605Z" fill="black" fill-opacity="0.6"/>
<g clip-path="url(#clip0)">
<path d="M3.92221 8.6223L11.4383 2.27333C11.6846 2.06544 12.0833 2.06579 12.3291 2.27441C12.5748 2.483 12.5741 2.82091 12.3278 3.02896L5.25912 9.00005L12.3281 14.9711C12.5744 15.1792 12.575 15.5169 12.3294 15.7255C12.2061 15.8301 12.0447 15.8824 11.8832 15.8824C11.7222 15.8824 11.5614 15.8304 11.4383 15.7266L3.92221 9.37777C3.80361 9.27782 3.73705 9.14178 3.73705 9.00005C3.73705 8.85832 3.8038 8.72245 3.92221 8.6223Z" fill="black" fill-opacity="0.6"/>
</g>
<defs>
<clipPath id="clip0">
<rect width="16.25" height="13.7647" fill="white" transform="matrix(-1 0 0 1 16.25 2.11768)"/>
</clipPath>
</defs>
</svg>
