<svg width="44" height="44" viewBox="0 0 44 44" fill="none" xmlns="http://www.w3.org/2000/svg">
<g clip-path="url(#clip0)">
<path d="M39.2535 12.2454C40.0585 11.2209 40.3611 9.7979 40.0631 8.43834C39.8834 7.61723 39.4912 6.80452 39.1126 6.01866C38.3293 4.39423 37.5892 2.86011 38.5124 1.19675C38.7415 0.78351 38.5986 0.259156 38.1937 0.0255129C37.7887 -0.207794 37.2744 -0.0627747 37.0453 0.350465C35.6839 2.80372 36.746 5.00688 37.5997 6.77699C37.9507 7.50477 38.2819 8.19194 38.4182 8.81331C38.4883 9.13356 38.6612 10.2504 37.9379 11.1706C37.3123 11.9668 36.1376 12.4123 34.5285 12.4677L33.5576 11.4572V0.773439C33.5576 0.298768 33.18 -0.0859375 32.7147 -0.0859375H29.8148C29.3495 -0.0859375 28.9719 0.298768 28.9719 0.773439V8.17616C28.1501 8.1953 27.3563 8.5377 26.7541 9.16444L20.5857 15.5829C16.5894 14.6651 14.2435 16.3476 12.3066 18.3222C11.98 18.6555 11.9773 19.195 12.3006 19.5313L14.284 21.5952L12.7534 22.3377C12.3329 22.5418 12.1541 23.0548 12.3543 23.4831C12.4989 23.7926 12.8011 23.9736 13.1159 23.9736C13.2373 23.9736 13.3608 23.9467 13.4777 23.89L15.5315 22.8933L16.59 23.9944C16.2417 26.1069 16.8857 28.2359 18.36 29.77C19.5651 31.0238 21.2106 31.7096 22.8875 31.7096C23.2338 31.7096 23.5812 31.6798 23.9266 31.6204L24.9953 32.705L23.7883 35.3989C23.5947 35.8306 23.781 36.3405 24.2044 36.5376C24.318 36.5906 24.4372 36.6155 24.5541 36.6155C24.8741 36.6155 25.1797 36.4292 25.3212 36.1133L26.2695 33.9977L28.1596 35.9159C28.3243 36.0827 28.5393 36.1663 28.7543 36.1663C28.9702 36.1663 29.1859 36.0821 29.3502 35.9146C31.2891 33.938 32.9403 31.5431 32.0348 27.4618L38.2108 21.0356C39.4655 19.7294 39.4655 17.6048 38.2108 16.2989L36.0312 14.0313C37.4463 13.7651 38.5275 13.1689 39.2535 12.2454ZM30.6576 1.63282H31.8719V11.7986V11.8V15.8907C31.8719 16.2321 31.5996 16.5098 31.2647 16.5098C30.9299 16.5098 30.6576 16.2321 30.6576 15.8907V1.63282ZM19.5638 28.5669C18.7996 27.7716 18.336 26.7595 18.2148 25.6856L22.3274 29.9647C21.2985 29.8415 20.3273 29.3611 19.5638 28.5669ZM28.7381 34.078L24.7971 30.0785L18.1072 23.1176C18.1069 23.1172 18.1069 23.1169 18.1065 23.1169L14.1029 18.9509C15.8239 17.3728 17.5946 16.598 20.4152 17.3067L30.3439 27.638C31.0422 30.5163 30.2846 32.323 28.7381 34.078ZM37.0064 19.8325L31.1047 25.9736L22.0321 16.5336L27.9582 10.3676C28.2347 10.0795 28.5959 9.91808 28.9719 9.89827V15.8907C28.9719 17.1798 30.0005 18.2285 31.2647 18.2285C32.529 18.2285 33.5576 17.1798 33.5576 15.8907V13.9128L37.0064 17.5017C37.6241 18.1443 37.6241 19.1899 37.0064 19.8325Z" fill="white"/>
<path d="M11.2461 35.9693L8.71946 38.5984C8.39351 38.9375 8.39911 39.4813 8.73165 39.8136C8.89561 39.9774 9.10863 40.059 9.32132 40.059C9.53994 40.059 9.75856 39.9731 9.92351 39.8012L12.4504 37.1721C12.7761 36.833 12.7708 36.2888 12.4383 35.9568C12.1057 35.6245 11.5717 35.6302 11.2461 35.9693Z" fill="white"/>
<path d="M18.2863 37.3057C17.9027 37.0371 17.3779 37.1368 17.1142 37.5279L15.7073 39.6193C15.4439 40.0104 15.5414 40.5455 15.9253 40.814C16.0711 40.9161 16.2371 40.9647 16.4014 40.9647C16.67 40.9647 16.9338 40.8341 17.0971 40.5914L18.5043 38.5004C18.7676 38.109 18.6702 37.5742 18.2863 37.3057Z" fill="white"/>
<path d="M10.9507 31.0668C11.3297 30.7909 11.4173 30.2541 11.1466 29.868C10.876 29.482 10.3495 29.3927 9.97059 29.6686L7.96122 31.1329C7.58226 31.4089 7.49468 31.9453 7.76532 32.3317C7.92994 32.5663 8.18905 32.6916 8.45212 32.6916C8.62168 32.6916 8.79288 32.6392 8.94137 32.5311L10.9507 31.0668Z" fill="white"/>
<path d="M27.7481 40.5649C27.2977 40.4444 26.8371 40.719 26.7189 41.1779L26.2918 42.8362C26.1737 43.2955 26.4426 43.7651 26.893 43.8856C26.9648 43.9051 27.0366 43.9141 27.1077 43.9141C27.4814 43.9141 27.8228 43.6587 27.9222 43.2726L28.3493 41.6143C28.4675 41.1551 28.1982 40.6854 27.7481 40.5649Z" fill="white"/>
<path d="M8.02377 20.0221C7.90096 19.5642 7.43739 19.295 6.9883 19.4199L5.39443 19.8644C4.94567 19.9896 4.68096 20.4622 4.80377 20.9201C4.90616 21.3018 5.24594 21.5529 5.61634 21.5529C5.69009 21.5529 5.76483 21.5432 5.83924 21.5223L7.43311 21.0779C7.88186 20.9527 8.14658 20.48 8.02377 20.0221Z" fill="white"/>
<path d="M13.0385 34.1038L13.0069 34.137C12.6813 34.4761 12.6865 35.0202 13.0191 35.3522C13.183 35.5161 13.396 35.5976 13.6091 35.5976C13.8277 35.5976 14.046 35.5117 14.2112 35.3398L14.2428 35.3066C14.5685 34.9675 14.5632 34.4237 14.2307 34.0914C13.8981 33.7594 13.3644 33.7651 13.0385 34.1038Z" fill="white"/>
</g>
<defs>
<clipPath id="clip0">
<rect width="43.0703" height="44" fill="white" transform="translate(0.854492)"/>
</clipPath>
</defs>
</svg>
