<svg width="44" height="44" viewBox="0 0 44 44" fill="none" xmlns="http://www.w3.org/2000/svg">
<path d="M10.6197 31.4531C10.1545 31.4531 9.77686 31.8381 9.77686 32.3125C9.77686 32.7869 10.1545 33.1719 10.6197 33.1719C11.085 33.1719 11.4626 32.7869 11.4626 32.3125C11.4626 31.8381 11.085 31.4531 10.6197 31.4531Z" fill="white"/>
<path d="M37.5913 0H34.2199C33.7544 0 33.377 0.384742 33.377 0.859375V1.57523H13.9912C12.5969 1.57523 11.4626 2.73178 11.4626 4.15336C11.4626 4.73911 11.4626 17.5392 11.4626 18.2065L4.96657 24.8298C4.96607 24.8303 4.96573 24.8308 4.96522 24.8313C4.77035 25.0308 4.67587 25.3271 4.7406 25.6244C4.74161 25.6291 4.74203 25.634 4.74313 25.6388L8.09115 39.8051V41.4219C8.09115 42.8435 9.22547 44 10.6197 44H17.3626C18.7569 44 19.8912 42.8435 19.8912 41.4219V39.8052L23.2392 25.6389C23.2403 25.6341 23.2407 25.6293 23.2418 25.6245C23.3017 25.3494 23.2284 25.0561 23.0272 24.8426C23.0237 24.8389 23.0207 24.8349 23.0172 24.8313C23.0167 24.8308 23.0164 24.8303 23.0159 24.8298L16.5198 18.2065V12.7371C21.1444 13.914 24.9046 17.2421 26.6945 21.8035C26.8225 22.1298 27.1324 22.3438 27.4771 22.3438H33.3771V23.2031C33.377 23.6778 33.7544 24.0625 34.2199 24.0625H37.5913C38.0568 24.0625 38.4342 23.6778 38.4342 23.2031V0.859375C38.4342 0.384742 38.0568 0 37.5913 0ZM13.1483 12.1628L14.834 12.4084V17.7031H13.1483V12.1628ZM6.63266 26.2969H8.33979L9.04012 29.5076C9.12753 29.9081 9.47572 30.1806 9.86208 30.1806C9.92268 30.1806 9.98421 30.1739 10.0458 30.1599C10.5002 30.0569 10.7867 29.5977 10.6856 29.1344L10.0667 26.2969H17.8965L14.9305 38.8438H13.027L11.937 34.8811C11.8112 34.4241 11.3461 34.1574 10.8978 34.2857C10.4496 34.4138 10.1882 34.8882 10.3139 35.3452L11.2763 38.8438H9.59793L6.63266 26.2969ZM18.2055 41.4219C18.2055 41.8957 17.8274 42.2812 17.3626 42.2812H10.6197C10.155 42.2812 9.77687 41.8957 9.77687 41.4219V40.5625C10.606 40.5625 17.2221 40.5625 18.2055 40.5625V41.4219ZM18.3845 38.8438H16.6645L19.6304 26.2969H21.3497L18.3845 38.8438ZM20.385 24.5781H7.59748L12.6547 19.4219H15.3279L20.385 24.5781ZM33.377 20.625H28.0367C26.9838 18.1921 25.3708 16.032 23.3466 14.351C19.2844 10.9777 15.3108 10.7417 13.1483 10.4266C13.1483 9.13155 13.1483 5.46502 13.1483 4.15345C13.1483 3.67959 13.5264 3.29407 13.9912 3.29407H33.377V20.625ZM36.7485 22.3438H35.0627V1.71875H36.7485V22.3438Z" fill="white"/>
<path d="M30.8484 4.98438H15.6769C15.2114 4.98438 14.834 5.36912 14.834 5.84375V8.1907C14.834 8.61695 15.1404 8.97875 15.554 9.04088C21.1515 9.88187 26.1274 13.4038 28.8647 18.462C29.013 18.7361 29.2957 18.9062 29.6027 18.9062H30.8484C31.3139 18.9062 31.6913 18.5215 31.6913 18.0469V5.84375C31.6913 5.36912 31.3139 4.98438 30.8484 4.98438ZM30.0056 17.0369C27.08 12.0442 22.1196 8.52354 16.5198 7.46273V6.70312H30.0056V17.0369Z" fill="white"/>
</svg>
