<svg width="45" height="44" viewBox="0 0 45 44" fill="none" xmlns="http://www.w3.org/2000/svg">
<path d="M15.1076 8.13648C15.4429 8.23737 15.7954 8.04237 15.8946 7.70026C16.4573 5.75996 16.812 4.27754 16.9787 3.54062H28.0313C28.418 5.23841 29.8032 10.8892 32.3153 16.6767C32.4622 17.0155 32.8725 17.1594 33.1933 16.9848C33.4819 16.8277 33.6061 16.4588 33.4737 16.154C30.5402 9.39537 29.1715 2.82795 29.1581 2.76237C29.0966 2.46331 28.8379 2.24907 28.5382 2.24907H25.0151C24.8542 0.982094 23.7901 0 22.5045 0C21.2189 0 20.1548 0.982094 19.994 2.24907H16.4709C16.1712 2.24907 15.9125 2.46331 15.851 2.76237C15.8472 2.78068 15.4649 4.62645 14.6797 7.33408C14.5806 7.67611 14.7722 8.03533 15.1076 8.13648ZM22.5045 1.29155C23.0893 1.29155 23.5813 1.69864 23.7257 2.24898H21.2833C21.4278 1.69864 21.9197 1.29155 22.5045 1.29155Z" fill="white"/>
<path d="M36.7494 22.4699C35.9892 21.2583 35.2452 19.9107 34.5378 18.4646C34.3817 18.1454 34.0015 18.0157 33.6883 18.1749C33.3753 18.334 33.2481 18.7219 33.4042 19.041C33.9439 20.1446 34.5054 21.1935 35.0795 22.172H9.93002C11.878 18.8567 13.6254 14.8312 15.1313 10.1866C15.2411 9.84798 15.0609 9.48266 14.7288 9.37068C14.3967 9.2587 14.0384 9.44252 13.9286 9.78112C12.3248 14.7275 10.3644 19.1151 8.25964 22.4697C7.99464 22.8922 8.30288 23.4635 8.79317 23.4635H20.6366V30.4689C20.6366 30.8256 20.9203 31.1148 21.2701 31.1148C21.6198 31.1148 21.9035 30.8256 21.9035 30.4689V23.4635H23.1056V36.8608H21.9035V33.052C21.9035 32.6954 21.6199 32.4062 21.2701 32.4062C20.9203 32.4062 20.6366 32.6953 20.6366 33.052V36.8608H17.8856C16.7933 36.8608 15.9046 37.7669 15.9046 38.8807V39.6248C14.7479 39.7592 13.8463 40.7627 13.8463 41.9773V43.3541C13.8463 43.7107 14.1299 43.9999 14.4797 43.9999H30.5294C30.8793 43.9999 31.1628 43.7107 31.1628 43.3541V41.9773C31.1628 40.7627 30.2612 39.7592 29.1045 39.6248V38.8807C29.1045 37.7669 28.2158 36.8608 27.1234 36.8608H24.3723V23.4637H28.7872V28.1855C27.9276 28.4607 27.3023 29.2805 27.3023 30.2466C27.3023 31.4375 28.2525 32.4064 29.4205 32.4064C30.5886 32.4064 31.5388 31.4375 31.5388 30.2466C31.5388 29.2805 30.9135 28.4608 30.0539 28.1855V23.4637H36.2159C36.7062 23.4637 37.0146 22.8923 36.7494 22.4699ZM29.8961 41.9775V42.7084H15.1129V41.9775C15.1129 41.3838 15.5867 40.9008 16.1691 40.9008H28.84C29.4223 40.9007 29.8961 41.3838 29.8961 41.9775ZM27.8378 38.8808V39.6092H17.1712V38.8808C17.1712 38.4793 17.4917 38.1525 17.8855 38.1525H27.1234C27.5173 38.1525 27.8378 38.4793 27.8378 38.8808ZM29.4206 31.1148C28.9511 31.1148 28.5691 30.7254 28.5691 30.2466C28.5691 29.7679 28.9511 29.3784 29.4206 29.3784C29.8901 29.3784 30.2722 29.7679 30.2722 30.2466C30.2721 30.7253 29.8901 31.1148 29.4206 31.1148Z" fill="white"/>
</svg>
