<svg width="22" height="22" viewBox="0 0 22 22" fill="none" xmlns="http://www.w3.org/2000/svg">
<path d="M16.1899 0H5.81013C2.552 0 0 2.552 0 5.81013V16.1899C0 19.448 2.552 22 5.81013 22H16.1899C19.448 22 22 19.448 22 16.1899V5.81013C22 2.552 19.4473 0 16.1899 0ZM20.5806 16.1899C20.5806 18.6525 18.6517 20.5806 16.1899 20.5806H5.81013C3.34826 20.5806 1.41935 18.6517 1.41935 16.1899V5.81013C1.41935 3.34826 3.34826 1.41935 5.81013 1.41935H16.1899C18.6525 1.41935 20.5806 3.34826 20.5806 5.81013V16.1899Z" fill="white"/>
<path d="M17.9186 5.61701C17.6908 5.45024 17.3857 5.43604 17.1423 5.57798C16.8995 5.72062 16.3616 5.79088 15.9301 5.84765C15.8407 5.85972 15.7527 5.87107 15.6675 5.88314C15.0636 5.38211 14.2922 5.10107 13.4966 5.10107C11.7047 5.10107 10.2343 6.48778 10.1299 8.23217C8.50477 7.95824 7.01658 7.11088 5.962 5.83772C5.80516 5.64753 5.56174 5.55456 5.31619 5.58649C5.07206 5.62056 4.86342 5.77882 4.76477 6.00449C4.71935 6.10811 4.32335 7.08249 4.32335 9.49256C4.32335 11.5797 5.97051 13.1133 7.10032 13.9202C6.32748 14.2715 5.43684 14.4007 4.5909 14.307C4.26019 14.2715 3.95077 14.466 3.84148 14.7775C3.73219 15.0898 3.85284 15.4361 4.13245 15.6128C5.46664 16.4545 7.00877 16.8995 8.59277 16.8995C13.6797 16.8995 16.7583 12.9033 16.8726 8.96314C17.0188 8.75094 17.2977 8.33791 17.7689 7.61333C17.9577 7.32165 18.1159 6.69288 18.1933 6.34443C18.255 6.06907 18.1464 5.78307 17.9186 5.61701ZM15.5923 8.31804C15.505 8.43869 15.4575 8.58488 15.4575 8.73391C15.4575 11.535 13.3277 15.4801 8.59348 15.4801C8.16555 15.4801 7.74116 15.4411 7.32529 15.3644C7.88026 15.1544 8.40471 14.8613 8.88658 14.4901C9.07961 14.3418 9.18251 14.1033 9.1598 13.8613C9.13709 13.6193 8.99161 13.405 8.77374 13.295C8.74322 13.2794 5.74342 11.7018 5.74342 9.49327C5.74342 8.75307 5.78316 8.17114 5.83568 7.7283C7.22877 8.92765 9.00155 9.64514 10.8673 9.7374C10.8815 9.73811 10.8964 9.73882 10.9099 9.73811C11.3229 9.72604 11.6266 9.42301 11.6266 9.02843C11.6266 8.93049 11.6068 8.83753 11.5706 8.75236C11.5528 8.64591 11.5436 8.53875 11.5436 8.43159C11.5436 7.37772 12.4194 6.52043 13.4966 6.52043C14.0374 6.52043 14.5576 6.74185 14.9245 7.1272C15.092 7.30178 15.3368 7.38056 15.5732 7.33443C15.7343 7.30391 15.9202 7.27978 16.1154 7.25424C16.1849 7.24501 16.2552 7.23578 16.3268 7.22585C15.7939 8.03772 15.6015 8.30527 15.5923 8.31804Z" fill="white"/>
</svg>
