<svg width="35" height="35" viewBox="0 0 35 35" fill="none" xmlns="http://www.w3.org/2000/svg">
<g clip-path="url(#clip0)">
<path d="M30.1441 5.38632C26.8407 1.93826 22.2701 -0.00765791 17.495 0.00112826C7.84496 -0.0110259 0.0121681 7.802 1.38536e-05 17.4521C-0.00599003 22.2237 1.93971 26.7902 5.3852 30.0912C5.39524 30.1012 5.39897 30.1162 5.40893 30.125C5.51011 30.2224 5.62009 30.3049 5.72259 30.3986C6.00375 30.6485 6.28491 30.9072 6.58108 31.1484C6.73974 31.2734 6.9047 31.3983 7.06717 31.5132C7.34708 31.7219 7.627 31.9306 7.91936 32.1231C8.11807 32.2481 8.32301 32.373 8.52663 32.498C8.79651 32.6604 9.06522 32.8241 9.34389 32.9728C9.58009 33.0978 9.82119 33.2052 10.0611 33.3189C10.3235 33.4439 10.5822 33.5688 10.8509 33.6812C11.1195 33.7937 11.3895 33.8812 11.6618 33.9786C11.9342 34.0761 12.1692 34.1661 12.4303 34.246C12.7252 34.3348 13.0276 34.4035 13.3275 34.4772C13.5774 34.5384 13.8199 34.6084 14.0773 34.6584C14.4221 34.7272 14.7721 34.7709 15.122 34.8184C15.3382 34.8484 15.5493 34.8909 15.768 34.9121C16.3403 34.9683 16.9176 34.9996 17.4999 34.9996C18.0822 34.9996 18.6595 34.9683 19.2318 34.9121C19.4505 34.8909 19.6616 34.8484 19.8778 34.8184C20.2277 34.7709 20.5775 34.7272 20.9224 34.6584C21.1723 34.6084 21.4223 34.5334 21.6722 34.4772C21.9721 34.4035 22.2745 34.3347 22.5694 34.246C22.8306 34.1661 23.083 34.0686 23.3379 33.9786C23.5929 33.8887 23.8827 33.7912 24.1489 33.6812C24.415 33.5713 24.6762 33.4425 24.9386 33.3189C25.1785 33.2052 25.4197 33.0977 25.6559 32.9728C25.9345 32.8241 26.2032 32.6604 26.4731 32.498C26.6768 32.373 26.8817 32.2593 27.0804 32.1231C27.3728 31.9307 27.6527 31.722 27.9326 31.5132C28.095 31.3883 28.2599 31.2758 28.4187 31.1484C28.7148 30.911 28.996 30.6586 29.2771 30.3986C29.3796 30.3049 29.4895 30.2225 29.5908 30.125C29.6008 30.1162 29.6046 30.1012 29.6145 30.0912C36.583 23.4153 36.82 12.3546 30.1441 5.38632ZM27.3355 28.7829C27.1081 28.9828 26.8732 29.1728 26.6358 29.3565C26.4959 29.4639 26.3559 29.5701 26.2122 29.6726C25.986 29.8363 25.7561 29.9913 25.5224 30.14C25.3524 30.2487 25.1788 30.3536 25.0038 30.4561C24.7838 30.5811 24.5601 30.706 24.334 30.831C24.134 30.9334 23.9303 31.0297 23.7255 31.1247C23.5206 31.2196 23.2943 31.3208 23.0732 31.4096C22.852 31.4983 22.6171 31.582 22.3859 31.6595C22.1747 31.7319 21.9635 31.8069 21.7498 31.8706C21.4999 31.9456 21.2387 32.0068 20.9801 32.0693C20.7776 32.1168 20.5777 32.1705 20.3728 32.2106C20.0766 32.268 19.7742 32.308 19.4706 32.3492C19.2982 32.3717 19.127 32.403 18.9532 32.4205C18.4734 32.4667 17.9873 32.4942 17.4962 32.4942C17.0051 32.4942 16.519 32.4668 16.0392 32.4205C15.8655 32.403 15.6943 32.3717 15.5218 32.3492C15.2182 32.308 14.9158 32.268 14.6196 32.2106C14.4147 32.1706 14.2147 32.1169 14.0123 32.0693C13.7537 32.0069 13.4962 31.9444 13.2426 31.8706C13.029 31.8069 12.8177 31.7319 12.6066 31.6595C12.3754 31.5795 12.1442 31.4982 11.9193 31.4096C11.6943 31.3208 11.4819 31.2234 11.267 31.1247C11.052 31.026 10.8583 30.9335 10.6584 30.831C10.4323 30.7136 10.2086 30.5898 9.98864 30.4561C9.81373 30.3537 9.63998 30.2487 9.47004 30.14C9.2364 29.9913 9.00642 29.8363 8.78025 29.6726C8.63653 29.5702 8.49661 29.4639 8.35661 29.3565C8.11917 29.1728 7.88428 28.9816 7.65687 28.7829C7.60188 28.7416 7.55187 28.6891 7.4982 28.6416C7.55407 24.3908 10.2849 20.6374 14.3122 19.2759C16.326 20.2339 18.664 20.2339 20.6777 19.2759C24.705 20.6374 27.4358 24.3907 27.4917 28.6416C27.4392 28.6891 27.3892 28.7367 27.3355 28.7829ZM13.1375 10.0201C14.4905 7.61391 17.5379 6.76011 19.9442 8.11311C22.3504 9.4661 23.2042 12.5135 21.8512 14.9198C21.4023 15.7181 20.7426 16.3778 19.9442 16.8268C19.938 16.8268 19.9304 16.8268 19.9229 16.8343C19.5916 17.0187 19.2414 17.167 18.8783 17.2766C18.8133 17.2954 18.7533 17.3204 18.6846 17.3366C18.5596 17.3691 18.4284 17.3916 18.2997 17.4141C18.0574 17.4565 17.8121 17.4811 17.5662 17.4878H17.4237C17.1778 17.4811 16.9326 17.4565 16.6902 17.4141C16.5652 17.3916 16.4328 17.3691 16.3054 17.3366C16.2391 17.3204 16.1804 17.2954 16.1117 17.2766C15.7486 17.167 15.3984 17.0188 15.0671 16.8343L15.0446 16.8268C12.6383 15.4738 11.7845 12.4264 13.1375 10.0201ZM29.7085 26.1638C28.9066 22.4236 26.4437 19.2527 23.0182 17.5504C25.8184 14.5001 25.6156 9.75722 22.5652 6.95699C19.5149 4.15677 14.7721 4.35958 11.9718 7.40992C9.33935 10.2776 9.33935 14.6828 11.9718 17.5504C8.54632 19.2528 6.08341 22.4236 5.28153 26.1638C0.489843 19.4143 2.07692 10.0584 8.82638 5.26668C15.5758 0.474996 24.9318 2.06207 29.7235 8.81153C31.5247 11.3488 32.4916 14.3837 32.4901 17.4953C32.4901 20.6043 31.5175 23.6353 29.7085 26.1638Z" fill="black"/>
</g>
<defs>
<clipPath id="clip0">
<rect width="35" height="35" fill="white"/>
</clipPath>
</defs>
</svg>
